<?xml version="1.0" encoding="utf-8"?>
<!-- Generator: Adobe Illustrator 25.0.1, SVG Export Plug-In . SVG Version: 6.00 Build 0)  -->
<svg version="1.0" id="Layer_1" xmlns="http://www.w3.org/2000/svg" xmlns:xlink="http://www.w3.org/1999/xlink" x="0px" y="0px"
	 viewBox="0 0 380 284" style="enable-background:new 0 0 380 284;" xml:space="preserve">
<style type="text/css">
	.st0{fill:url(#SVGID_1_);}
	.st1{fill:#FFFFFF;}
	.st2{opacity:0.6;}
	.st3{fill:url(#SVGID_2_);}
	.st4{fill:url(#SVGID_3_);}
	.st5{fill:url(#SVGID_4_);}
	.st6{fill:url(#SVGID_5_);}
</style>
<linearGradient id="SVGID_1_" gradientUnits="userSpaceOnUse" x1="190.005" y1="238.14" x2="190.005" y2="49.86" gradientTransform="matrix(1 0 0 -1 0 286)">
	<stop  offset="0" style="stop-color:#005CFF"/>
	<stop  offset="1" style="stop-color:#0047AD"/>
</linearGradient>
<path class="st0" d="M118.1,47.9h143.9c12.3,0,22.2,9.9,22.2,22.2v143.9c0,12.3-9.9,22.2-22.2,22.2H118.1
	c-12.3,0-22.2-9.9-22.2-22.2V70.1C95.9,57.8,105.8,47.9,118.1,47.9z"/>
<path class="st1" d="M172.7,136.3c0,0,16-1.2,16-19.9S175.6,88.5,159,88.5h-54.5v104.7H159c0,0,33.3,1.1,33.3-30.9
	C192.3,162.3,193.8,136.3,172.7,136.3z M128.6,107.1H159c0,0,7.4,0,7.4,10.9s-4.3,12.5-9.3,12.5h-28.6V107.1z M157.6,174.6h-29.1
	v-28H159c0,0,11-0.1,11,14.4C170.1,173.1,162,174.5,157.6,174.6z"/>
<path class="st1" d="M236.7,115.2c-40.3,0-40.2,40.2-40.2,40.2s-2.8,40,40.2,40c0,0,35.8,2,35.8-27.9h-18.4c0,0,0.6,11.3-16.8,11.3
	c0,0-18.4,1.2-18.4-18.2h54.3C273.1,160.6,279.1,115.2,236.7,115.2z M253.1,146.6h-34.4c0,0,2.2-16.1,18.4-16.1
	S253.1,146.6,253.1,146.6z"/>
<rect x="214.1" y="94.7" class="st1" width="43.2" height="12.9"/>
<g class="st2">
	
		<linearGradient id="SVGID_2_" gradientUnits="userSpaceOnUse" x1="129.7635" y1="248.3326" x2="250.2465" y2="39.6675" gradientTransform="matrix(1 0 0 -1 0 286)">
		<stop  offset="0.22" style="stop-color:#FFFFFF;stop-opacity:0.3"/>
		<stop  offset="0.4" style="stop-color:#FFFFFF;stop-opacity:0"/>
	</linearGradient>
	<path class="st3" d="M118.1,47.9h143.9c12.3,0,22.2,9.9,22.2,22.2v143.9c0,12.3-9.9,22.2-22.2,22.2H118.1
		c-12.3,0-22.2-9.9-22.2-22.2V70.1C95.9,57.8,105.8,47.9,118.1,47.9z"/>
	
		<linearGradient id="SVGID_3_" gradientUnits="userSpaceOnUse" x1="109.2552" y1="200.2019" x2="170.9576" y2="93.315" gradientTransform="matrix(1 0 0 -1 0 286)">
		<stop  offset="0.22" style="stop-color:#FFFFFF;stop-opacity:0.3"/>
		<stop  offset="0.4" style="stop-color:#FFFFFF;stop-opacity:0"/>
	</linearGradient>
	<path class="st4" d="M172.7,136.3c0,0,16-1.2,16-19.9S175.6,88.5,159,88.5h-54.5v104.7H159c0,0,33.3,1.1,33.3-30.9
		C192.3,162.3,193.8,136.3,172.7,136.3z M128.6,107.1H159c0,0,7.4,0,7.4,10.9s-4.3,12.5-9.3,12.5h-28.6V107.1z M157.6,174.6h-29.1
		v-28H159c0,0,11-0.1,11,14.4C170.1,173.1,162,174.5,157.6,174.6z"/>
	
		<linearGradient id="SVGID_4_" gradientUnits="userSpaceOnUse" x1="215.0706" y1="165.5867" x2="256.5246" y2="93.7916" gradientTransform="matrix(1 0 0 -1 0 286)">
		<stop  offset="0.22" style="stop-color:#FFFFFF;stop-opacity:0.3"/>
		<stop  offset="0.4" style="stop-color:#FFFFFF;stop-opacity:0"/>
	</linearGradient>
	<path class="st5" d="M236.7,115.2c-40.3,0-40.2,40.2-40.2,40.2s-2.8,40,40.2,40c0,0,35.8,2,35.8-27.9h-18.4c0,0,0.6,11.3-16.8,11.3
		c0,0-18.4,1.2-18.4-18.2h54.3C273.1,160.6,279.1,115.2,236.7,115.2z M253.1,146.6h-34.4c0,0,2.2-16.1,18.4-16.1
		S253.1,146.6,253.1,146.6z"/>
	
		<linearGradient id="SVGID_5_" gradientUnits="userSpaceOnUse" x1="227.558" y1="199.0534" x2="243.952" y2="170.6666" gradientTransform="matrix(1 0 0 -1 0 286)">
		<stop  offset="0.22" style="stop-color:#FFFFFF;stop-opacity:0.3"/>
		<stop  offset="0.4" style="stop-color:#FFFFFF;stop-opacity:0"/>
	</linearGradient>
	<rect x="214.1" y="94.7" class="st6" width="43.2" height="12.9"/>
</g>
</svg>
