<svg width="48" height="48" viewBox="0 0 48 48" fill="none" xmlns="http://www.w3.org/2000/svg">
<path d="M17.3787 40.4998H9C8.60218 40.4998 8.22064 40.3417 7.93934 40.0604C7.65804 39.7791 7.5 39.3976 7.5 38.9998V30.6211C7.5 30.4241 7.5388 30.2291 7.61418 30.0471C7.68956 29.8651 7.80005 29.6997 7.93934 29.5604L30.4393 7.06043C30.7206 6.77913 31.1022 6.62109 31.5 6.62109C31.8978 6.62109 32.2794 6.77913 32.5607 7.06043L40.9393 15.4391C41.2206 15.7204 41.3787 16.1019 41.3787 16.4998C41.3787 16.8976 41.2206 17.2791 40.9393 17.5604L18.4393 40.0604C18.3001 40.1997 18.1347 40.3102 17.9527 40.3856C17.7707 40.461 17.5757 40.4998 17.3787 40.4998Z" stroke="#425058" stroke-width="3" stroke-linecap="round" stroke-linejoin="round"/>
<path d="M25.5 12L36 22.5" stroke="#425058" stroke-width="3" stroke-linecap="round" stroke-linejoin="round"/>
<path d="M17.9045 40.4045L7.5957 30.0957" stroke="#425058" stroke-width="3" stroke-linecap="round" stroke-linejoin="round"/>
</svg>
