<svg width="48" height="48" viewBox="0 0 48 48" fill="none" xmlns="http://www.w3.org/2000/svg">
<path d="M3.75 40.5H17.25C19.1784 40.5 21.0634 39.9282 22.6668 38.8568C24.2702 37.7855 25.5199 36.2627 26.2578 34.4812C26.9958 32.6996 27.1889 30.7392 26.8127 28.8479C26.4365 26.9566 25.5079 25.2193 24.1443 23.8557C22.7807 22.4922 21.0434 21.5636 19.1521 21.1873C17.2608 20.8111 15.3004 21.0042 13.5188 21.7422C11.7373 22.4801 10.2145 23.7298 9.14317 25.3332C8.07183 26.9366 7.5 28.8216 7.5 30.75C7.5 37.5 3.75 40.5 3.75 40.5Z" stroke="#425058" stroke-width="3" stroke-linecap="round" stroke-linejoin="round"/>
<path d="M21.0762 21.7802C24.675 16.93 33.8312 5.81836 42.1818 5.81836C42.1818 14.1689 31.0704 23.3249 26.2201 26.9239" stroke="#425058" stroke-width="3" stroke-linecap="round" stroke-linejoin="round"/>
<path d="M24.9297 16.9961C27.4755 18.422 29.5774 20.524 31.0033 23.0697" stroke="#425058" stroke-width="3" stroke-linecap="round" stroke-linejoin="round"/>
</svg>
