<svg width="49" height="49" viewBox="0 0 49 49" fill="none" xmlns="http://www.w3.org/2000/svg">
<path d="M9.1875 36.75L39.8125 36.75C41.5039 36.75 42.875 35.3789 42.875 33.6875V12.25C42.875 10.5586 41.5039 9.1875 39.8125 9.1875L9.1875 9.1875C7.49613 9.1875 6.125 10.5586 6.125 12.25V33.6875C6.125 35.3789 7.49613 36.75 9.1875 36.75Z" stroke="#425058" stroke-width="3.0625" stroke-linecap="round" stroke-linejoin="round"/>
<path d="M30.625 42.875H18.375" stroke="#425058" stroke-width="3.0625" stroke-linecap="round" stroke-linejoin="round"/>
<g clip-path="url(#clip0_506_3621)">
<path d="M24.4987 25.5208C27.3177 25.5208 29.6029 23.2356 29.6029 20.4167C29.6029 17.5977 27.3177 15.3125 24.4987 15.3125C21.6797 15.3125 19.3945 17.5977 19.3945 20.4167C19.3945 23.2356 21.6797 25.5208 24.4987 25.5208Z" stroke="#425058" stroke-width="1.27604" stroke-miterlimit="10"/>
<path d="M16.7617 29.9859C17.5461 28.6282 18.674 27.5008 20.0321 26.7169C21.3902 25.9331 22.9306 25.5205 24.4987 25.5205C26.0667 25.5205 27.6072 25.9332 28.9652 26.717C30.3233 27.5009 31.4512 28.6283 32.2356 29.9861" stroke="#425058" stroke-width="1.27604" stroke-linecap="round" stroke-linejoin="round"/>
</g>
<defs>
<clipPath id="clip0_506_3621">
<rect width="20.4167" height="20.4167" fill="white" transform="translate(14.291 12.7607)"/>
</clipPath>
</defs>
</svg>
